<?xml version="1.0" encoding="utf-8"?>
<!-- Generator: Adobe Illustrator 27.7.0, SVG Export Plug-In . SVG Version: 6.00 Build 0)  -->
<svg version="1.1" id="Camada_3" xmlns="http://www.w3.org/2000/svg" xmlns:xlink="http://www.w3.org/1999/xlink" x="0px" y="0px"
	 viewBox="0 0 330 56" style="enable-background:new 0 0 330 56;" xml:space="preserve">
<style type="text/css">
	.st0{fill:#DD1717;}
</style>
<g>
	<path class="st0" d="M14.8,12.1c4.7,0,8.4,2.9,8.4,6.6v22.5c0,3.6-3.8,6.5-8.4,6.5H1.5V12.1H14.8z M15.7,19.4
		c0-1.6-1.7-2.9-3.8-2.9H9v26.8h3c2.1,0,3.8-1.3,3.8-2.9V19.4z"/>
	<rect x="27.4" y="12.1" class="st0" width="7.6" height="35.6"/>
	<path class="st0" d="M53.5,43.3h-7.1l-0.6,4.4h-6.6l5.1-35.6h11.9l5.1,35.6h-7.1L53.5,43.3z M52.8,39l-3.1-21.9L46.9,39H52.8z"/>
	<path class="st0" d="M87.1,36.5v11.2h-7.6V35.8c0-2-2.1-3.7-4.7-3.7h-2v15.6h-7.5V12.1h13.3c4.7,0,8.4,2.9,8.4,6.6v4.7
		c0,3.6-3.8,6.5-8.4,6.5C83.3,29.9,87.1,32.8,87.1,36.5 M72.8,16.5v11.2h2c2.6,0,4.7-1.6,4.7-3.6v-4.7c0-1.6-1.7-2.9-3.7-2.9H72.8z"
		/>
	<rect x="91.2" y="12.1" class="st0" width="7.6" height="35.6"/>
	<path class="st0" d="M116.3,12.1c4.7,0,8.4,2.9,8.4,6.6v22.5c0,3.6-3.8,6.5-8.4,6.5h-4.8c-4.7,0-8.5-2.9-8.5-6.5V18.7
		c0-3.7,3.8-6.6,8.5-6.6H116.3z M110.5,40.8c0,1.4,1.5,2.6,3.3,2.6c1.9,0,3.4-1.2,3.4-2.6V19.1c0-1.4-1.5-2.6-3.4-2.6
		c-1.8,0-3.3,1.2-3.3,2.6V40.8z"/>
	<path class="st0" d="M155,12.1c4.7,0,8.4,2.9,8.4,6.6v22.5c0,3.6-3.8,6.5-8.4,6.5h-13.3V12.1H155z M156,19.4c0-1.6-1.7-2.9-3.8-2.9
		h-3v26.8h3c2.1,0,3.8-1.3,3.8-2.9V19.4z"/>
	<path class="st0" d="M180.9,12.1c4.7,0,8.4,2.9,8.4,6.6v22.5c0,3.6-3.8,6.5-8.4,6.5h-4.8c-4.7,0-8.5-2.9-8.5-6.5V18.7
		c0-3.7,3.8-6.6,8.5-6.6H180.9z M175.2,40.8c0,1.4,1.5,2.6,3.3,2.6c1.9,0,3.4-1.2,3.4-2.6V19.1c0-1.4-1.5-2.6-3.4-2.6
		c-1.8,0-3.3,1.2-3.3,2.6V40.8z"/>
	<path class="st0" d="M218.5,11.1c4.8,0,8.7,3,8.7,6.8v7.1c0,3.7-3.9,6.7-8.7,6.7h-6v16.1h-7.7V11.1H218.5z M219.5,18.6
		c0-1.7-1.7-3-3.9-3h-3.1v11.5h3.1c2.1,0,3.9-1.3,3.9-3V18.6z"/>
	<path class="st0" d="M244.8,11.1c4.8,0,8.7,3,8.7,6.8V41c0,3.7-3.9,6.7-8.7,6.7h-4.9c-4.9,0-8.7-3-8.7-6.7V17.9
		c0-3.8,3.9-6.8,8.7-6.8H244.8z M238.9,40.6c0,1.5,1.5,2.6,3.4,2.6c1.9,0,3.5-1.2,3.5-2.6V18.2c0-1.5-1.5-2.6-3.5-2.6
		c-1.9,0-3.4,1.2-3.4,2.6V40.6z"/>
	<path class="st0" d="M271.4,11.1c4.8,0,8.7,3,8.7,6.8V41c0,3.7-3.9,6.7-8.7,6.7h-13.7V11.1H271.4z M272.3,18.6c0-1.7-1.7-3-3.9-3
		h-3.1v27.6h3.1c2.1,0,3.9-1.3,3.9-3V18.6z"/>
	<polygon class="st0" points="292,15.6 292,27.1 301.9,27.1 301.9,31.7 292,31.7 292,43.2 301.9,43.2 301.9,47.7 284.3,47.7 
		284.3,11.1 301.9,11.1 301.9,15.6 	"/>
	<path class="st0" d="M328.5,36.2v11.5h-7.8V35.4c0-2.1-2.1-3.8-4.8-3.8h-2.1v16.1h-7.7V11.1h13.7c4.8,0,8.7,3,8.7,6.8v4.8
		c0,3.7-3.9,6.7-8.7,6.7C324.6,29.4,328.5,32.4,328.5,36.2 M313.9,15.6v11.5h2.1c2.6,0,4.8-1.7,4.8-3.7v-4.8c0-1.7-1.7-3-3.8-3
		H313.9z"/>
	<polygon class="st0" points="45,9.6 55.5,9.6 55.5,4.7 45,7.2 	"/>
</g>
</svg>
